<mxfile host="Electron" modified="2024-03-13T09:14:55.574Z" agent="Mozilla/5.0 (Windows NT 10.0; Win64; x64) AppleWebKit/537.36 (KHTML, like Gecko) draw.io/23.1.5 Chrome/120.0.6099.109 Electron/28.1.0 Safari/537.36" etag="dkrT8Sc3WmXvDzLmgm15" version="23.1.5" type="device">
  <diagram name="Seite-1" id="wq8iXXTOfOjoWpckNr5o">
    <mxGraphModel dx="1195" dy="703" grid="0" gridSize="10" guides="1" tooltips="1" connect="1" arrows="1" fold="1" page="1" pageScale="1" pageWidth="1169" pageHeight="827" math="0" shadow="0">
      <root>
        <mxCell id="0" />
        <mxCell id="1" parent="0" />
        <mxCell id="iFvApiixM8H-aQvfQEql-20" value="EVENT LOOP" style="rounded=0;whiteSpace=wrap;html=1;dashed=1;verticalAlign=top;" vertex="1" parent="1">
          <mxGeometry x="48" y="100" width="487" height="399" as="geometry" />
        </mxCell>
        <mxCell id="iFvApiixM8H-aQvfQEql-1" value="" style="shape=table;startSize=0;container=1;collapsible=0;childLayout=tableLayout;" vertex="1" parent="1">
          <mxGeometry x="579" y="291" width="360" height="40" as="geometry" />
        </mxCell>
        <mxCell id="iFvApiixM8H-aQvfQEql-2" value="" style="shape=tableRow;horizontal=0;startSize=0;swimlaneHead=0;swimlaneBody=0;strokeColor=inherit;top=0;left=0;bottom=0;right=0;collapsible=0;dropTarget=0;fillColor=none;points=[[0,0.5],[1,0.5]];portConstraint=eastwest;" vertex="1" parent="iFvApiixM8H-aQvfQEql-1">
          <mxGeometry width="360" height="40" as="geometry" />
        </mxCell>
        <mxCell id="iFvApiixM8H-aQvfQEql-3" value="Click" style="shape=partialRectangle;html=1;whiteSpace=wrap;connectable=0;strokeColor=inherit;overflow=hidden;fillColor=none;top=0;left=0;bottom=0;right=0;pointerEvents=1;" vertex="1" parent="iFvApiixM8H-aQvfQEql-2">
          <mxGeometry width="60" height="40" as="geometry">
            <mxRectangle width="60" height="40" as="alternateBounds" />
          </mxGeometry>
        </mxCell>
        <mxCell id="iFvApiixM8H-aQvfQEql-4" value="Input" style="shape=partialRectangle;html=1;whiteSpace=wrap;connectable=0;strokeColor=inherit;overflow=hidden;fillColor=none;top=0;left=0;bottom=0;right=0;pointerEvents=1;" vertex="1" parent="iFvApiixM8H-aQvfQEql-2">
          <mxGeometry x="60" width="60" height="40" as="geometry">
            <mxRectangle width="60" height="40" as="alternateBounds" />
          </mxGeometry>
        </mxCell>
        <mxCell id="iFvApiixM8H-aQvfQEql-5" value="Resource Received" style="shape=partialRectangle;html=1;whiteSpace=wrap;connectable=0;strokeColor=inherit;overflow=hidden;fillColor=none;top=0;left=0;bottom=0;right=0;pointerEvents=1;" vertex="1" parent="iFvApiixM8H-aQvfQEql-2">
          <mxGeometry x="120" width="60" height="40" as="geometry">
            <mxRectangle width="60" height="40" as="alternateBounds" />
          </mxGeometry>
        </mxCell>
        <mxCell id="iFvApiixM8H-aQvfQEql-6" value="..." style="shape=partialRectangle;html=1;whiteSpace=wrap;connectable=0;strokeColor=inherit;overflow=hidden;fillColor=none;top=0;left=0;bottom=0;right=0;pointerEvents=1;" vertex="1" parent="iFvApiixM8H-aQvfQEql-2">
          <mxGeometry x="180" width="60" height="40" as="geometry">
            <mxRectangle width="60" height="40" as="alternateBounds" />
          </mxGeometry>
        </mxCell>
        <mxCell id="iFvApiixM8H-aQvfQEql-7" value="..." style="shape=partialRectangle;html=1;whiteSpace=wrap;connectable=0;strokeColor=inherit;overflow=hidden;fillColor=none;top=0;left=0;bottom=0;right=0;pointerEvents=1;" vertex="1" parent="iFvApiixM8H-aQvfQEql-2">
          <mxGeometry x="240" width="60" height="40" as="geometry">
            <mxRectangle width="60" height="40" as="alternateBounds" />
          </mxGeometry>
        </mxCell>
        <mxCell id="iFvApiixM8H-aQvfQEql-8" value="..." style="shape=partialRectangle;html=1;whiteSpace=wrap;connectable=0;strokeColor=inherit;overflow=hidden;fillColor=none;top=0;left=0;bottom=0;right=0;pointerEvents=1;" vertex="1" parent="iFvApiixM8H-aQvfQEql-2">
          <mxGeometry x="300" width="60" height="40" as="geometry">
            <mxRectangle width="60" height="40" as="alternateBounds" />
          </mxGeometry>
        </mxCell>
        <mxCell id="iFvApiixM8H-aQvfQEql-9" value="Event-Warteschlange" style="text;html=1;align=left;verticalAlign=middle;whiteSpace=wrap;rounded=0;" vertex="1" parent="1">
          <mxGeometry x="579" y="252" width="176" height="30" as="geometry" />
        </mxCell>
        <mxCell id="iFvApiixM8H-aQvfQEql-13" value="[Warteschlange nicht leer]" style="edgeStyle=orthogonalEdgeStyle;rounded=0;orthogonalLoop=1;jettySize=auto;html=1;" edge="1" parent="1" source="iFvApiixM8H-aQvfQEql-11" target="iFvApiixM8H-aQvfQEql-12">
          <mxGeometry relative="1" as="geometry" />
        </mxCell>
        <mxCell id="iFvApiixM8H-aQvfQEql-18" value="[else]" style="edgeStyle=orthogonalEdgeStyle;rounded=0;orthogonalLoop=1;jettySize=auto;html=1;" edge="1" parent="1" source="iFvApiixM8H-aQvfQEql-11" target="iFvApiixM8H-aQvfQEql-17">
          <mxGeometry relative="1" as="geometry" />
        </mxCell>
        <mxCell id="iFvApiixM8H-aQvfQEql-11" value="" style="rhombus;" vertex="1" parent="1">
          <mxGeometry x="206" y="191" width="30" height="30" as="geometry" />
        </mxCell>
        <mxCell id="iFvApiixM8H-aQvfQEql-15" style="edgeStyle=orthogonalEdgeStyle;rounded=0;orthogonalLoop=1;jettySize=auto;html=1;" edge="1" parent="1" source="iFvApiixM8H-aQvfQEql-12" target="iFvApiixM8H-aQvfQEql-14">
          <mxGeometry relative="1" as="geometry" />
        </mxCell>
        <mxCell id="iFvApiixM8H-aQvfQEql-25" style="rounded=0;orthogonalLoop=1;jettySize=auto;html=1;dashed=1;endArrow=none;endFill=0;" edge="1" parent="1" source="iFvApiixM8H-aQvfQEql-12" target="iFvApiixM8H-aQvfQEql-2">
          <mxGeometry relative="1" as="geometry" />
        </mxCell>
        <mxCell id="iFvApiixM8H-aQvfQEql-12" value="Entferne erstes Event der Warteschlange" style="rounded=0;whiteSpace=wrap;html=1;" vertex="1" parent="1">
          <mxGeometry x="161" y="282" width="120" height="60" as="geometry" />
        </mxCell>
        <mxCell id="iFvApiixM8H-aQvfQEql-16" style="edgeStyle=orthogonalEdgeStyle;rounded=0;orthogonalLoop=1;jettySize=auto;html=1;entryX=0;entryY=0.5;entryDx=0;entryDy=0;" edge="1" parent="1" source="iFvApiixM8H-aQvfQEql-14" target="iFvApiixM8H-aQvfQEql-11">
          <mxGeometry relative="1" as="geometry">
            <Array as="points">
              <mxPoint x="121" y="403" />
              <mxPoint x="121" y="206" />
            </Array>
          </mxGeometry>
        </mxCell>
        <mxCell id="iFvApiixM8H-aQvfQEql-28" style="rounded=0;orthogonalLoop=1;jettySize=auto;html=1;endArrow=none;endFill=0;dashed=1;" edge="1" parent="1" source="iFvApiixM8H-aQvfQEql-14" target="iFvApiixM8H-aQvfQEql-27">
          <mxGeometry relative="1" as="geometry" />
        </mxCell>
        <mxCell id="iFvApiixM8H-aQvfQEql-14" value="Bearbeite entnommenes Event" style="rounded=0;whiteSpace=wrap;html=1;" vertex="1" parent="1">
          <mxGeometry x="161" y="373" width="120" height="60" as="geometry" />
        </mxCell>
        <mxCell id="iFvApiixM8H-aQvfQEql-19" style="edgeStyle=orthogonalEdgeStyle;rounded=0;orthogonalLoop=1;jettySize=auto;html=1;entryX=0.5;entryY=0;entryDx=0;entryDy=0;" edge="1" parent="1" source="iFvApiixM8H-aQvfQEql-17" target="iFvApiixM8H-aQvfQEql-11">
          <mxGeometry relative="1" as="geometry">
            <Array as="points">
              <mxPoint x="404" y="164" />
              <mxPoint x="221" y="164" />
            </Array>
          </mxGeometry>
        </mxCell>
        <mxCell id="iFvApiixM8H-aQvfQEql-17" value="Warte kurzen Moment" style="rounded=0;whiteSpace=wrap;html=1;" vertex="1" parent="1">
          <mxGeometry x="344" y="186" width="120" height="40" as="geometry" />
        </mxCell>
        <mxCell id="iFvApiixM8H-aQvfQEql-23" style="edgeStyle=orthogonalEdgeStyle;rounded=0;orthogonalLoop=1;jettySize=auto;html=1;curved=1;" edge="1" parent="1" source="iFvApiixM8H-aQvfQEql-21" target="iFvApiixM8H-aQvfQEql-2">
          <mxGeometry relative="1" as="geometry" />
        </mxCell>
        <mxCell id="iFvApiixM8H-aQvfQEql-21" value="Anfang" style="text;html=1;align=center;verticalAlign=middle;whiteSpace=wrap;rounded=0;" vertex="1" parent="1">
          <mxGeometry x="561" y="372" width="60" height="30" as="geometry" />
        </mxCell>
        <mxCell id="iFvApiixM8H-aQvfQEql-24" style="edgeStyle=orthogonalEdgeStyle;rounded=0;orthogonalLoop=1;jettySize=auto;html=1;entryX=1;entryY=0.5;entryDx=0;entryDy=0;curved=1;" edge="1" parent="1" source="iFvApiixM8H-aQvfQEql-22" target="iFvApiixM8H-aQvfQEql-2">
          <mxGeometry relative="1" as="geometry" />
        </mxCell>
        <mxCell id="iFvApiixM8H-aQvfQEql-22" value="Ende" style="text;html=1;align=center;verticalAlign=middle;whiteSpace=wrap;rounded=0;" vertex="1" parent="1">
          <mxGeometry x="881" y="372" width="60" height="30" as="geometry" />
        </mxCell>
        <mxCell id="iFvApiixM8H-aQvfQEql-27" value="Hier wird typischerweise der registrierte Event-Handler (eine Callback-Funktion) ausgefÃ¼hrt." style="shape=note;whiteSpace=wrap;html=1;backgroundOutline=1;darkOpacity=0.05;fillColor=#ffe6cc;strokeColor=#d79b00;size=14;shadow=1;align=left;spacing=10;" vertex="1" parent="1">
          <mxGeometry x="313" y="407" width="215" height="69" as="geometry" />
        </mxCell>
      </root>
    </mxGraphModel>
  </diagram>
</mxfile>
